# xmcd CD database file
#
# Track frame offsets:
#	150
#	31355
#	64174
#	87020
#	104846
#	124059
#	148913
#	176330
#	193187
#	214887
#	249259
#	262549
#	285238
#	314800
#	333161
#
# Disc length: 4736 seconds
#
# Revision: 2
# Processed by: cddbd v1.5.1PL0 Copyright (c) Steve Scherf et al.
# Submitted via: CDex 1.51
#
DISCID=db127e0f
DTITLE=Jazz DJ - Jazz DJ
DYEAR=2005
DGENRE=Jazz
TTITLE0=Luiz Carlos Vinhas - Estrelinha - Muito a Vontade - Que Pena - Aquarius
TTITLE1=Frankie Knuckles - The Whistle Song
TTITLE2=Nando Lauria - Saudade
TTITLE3=Sheree Brown - It's a Pleasure
TTITLE4=Bob Dorough - Old Devil Moon
TTITLE5=Gerald Wilson - Milestones
TTITLE6=The World Famous Supreme Team - Hey DJ
TTITLE7=Silvetti - Spring Rain
TTITLE8=Timmy Thomas - Why Can't We Live Together
TTITLE9=Caldera - Synesthesia
TTITLE10=Nel Torme - Cheek to Cheek
TTITLE11=Mando Lauria - thinking of Recife
TTITLE12=Blue Mitchell - Straight Up and Down
TTITLE13=Eliane Elias - Bird of Beauty
TTITLE14=Toninho Horta Feat. Roberto Ribeiro - Aqui, Oh!
EXTD=YEAR: 2005
EXTT0=
EXTT1=
EXTT2=
EXTT3=
EXTT4=
EXTT5=
EXTT6=
EXTT7=
EXTT8=
EXTT9=
EXTT10=
EXTT11=
EXTT12=
EXTT13=
EXTT14=
PLAYORDER=
